<svg width="80" height="80" viewBox="0 0 80 80" fill="none" xmlns="http://www.w3.org/2000/svg">
    <path d="M69.8648 12.3001C69.7996 11.1908 68.8869 10.2772 67.7786 10.2119C65.6925 10.0814 62.1722 9.95089 57.8696 10.0814C57.6741 10.0814 57.3481 10.0814 57.1525 10.0814C49.2644 10.3424 39.3554 11.3213 30.5547 14.5188C30.2939 14.5841 29.7072 14.8451 29.316 14.9756C24.6223 16.8027 20.3849 19.3477 17.1253 22.6758C6.89037 33.2472 7.80304 50.6705 19.0811 61.5682C30.3591 72.4659 47.8954 72.9227 58 62.2208C59.1083 61.0462 60.0861 59.7411 61.064 58.3707C70.7122 44.0144 70.1907 19.413 69.8648 12.3001Z"
          fill="url(#paint0_radial)"/>
    <path d="M69.4734 12.1708C69.6038 11.192 68.8867 10.2784 67.9088 10.2131C65.8879 10.0826 62.3024 9.9521 57.8694 10.0174C57.6738 10.0174 57.3479 10.0174 57.1523 10.0174C49.8509 10.2784 40.7242 11.192 32.445 13.8674C32.3146 13.9327 32.1842 13.998 32.119 14.0632C31.5323 14.4548 30.8152 14.8463 30.6848 14.9115L30.6196 14.9768C29.9025 15.4336 29.1854 15.8904 28.4683 16.4124C19.146 23.2643 17.1251 35.5976 23.9701 43.8851C30.8152 52.1726 43.8534 53.3472 53.0453 46.3648C54.0231 45.5818 55.001 44.7334 55.9137 43.8199C63.9973 35.5976 67.5828 21.6981 69.017 14.6505C69.1474 13.8022 69.343 12.9539 69.4734 12.1708Z"
          fill="url(#paint1_linear)"/>
    <path d="M53.0456 46.3649C54.0235 45.5818 55.0013 44.7335 55.914 43.8199C63.9977 35.5977 67.5832 21.6982 69.0174 14.6505C69.2129 13.737 69.3433 12.8234 69.4737 12.0403C69.6041 11.2572 68.887 10.6047 68.1047 10.8005C67.0616 11.1267 65.7578 11.5183 64.8451 11.7793C57.5438 14.1285 48.1563 17.9133 40.6593 23.5253C37.3998 26.0703 34.6618 28.9416 33.032 32.2044C30.4244 37.2943 29.9028 43.9504 32.4453 49.3014C32.5757 49.5624 32.8364 49.8234 33.0972 49.8887C39.4859 51.9769 47.1132 50.9328 53.0456 46.3649Z"
          fill="url(#paint2_radial)"/>
    <defs>
        <radialGradient id="paint0_radial" cx="0" cy="0" r="1" gradientUnits="userSpaceOnUse"
                        gradientTransform="translate(18.1706 14.2533) scale(62.8346 62.8971)">
            <stop offset="0.1646" stop-color="#42FFFA"/>
            <stop offset="0.539" stop-color="#07C3F2"/>
            <stop offset="0.6723" stop-color="#3595F3"/>
            <stop offset="0.8655" stop-color="#7D11EF"/>
            <stop offset="1" stop-color="#AF1DF5"/>
        </radialGradient>
        <linearGradient id="paint1_linear" x1="5.44283" y1="-7.42453" x2="68.018" y2="45.7114"
                        gradientUnits="userSpaceOnUse">
            <stop stop-color="#AF1DF5"/>
            <stop offset="0.1194" stop-color="#A329F5"/>
            <stop offset="0.349" stop-color="#3595F3"/>
            <stop offset="0.5653" stop-color="#07C3F2"/>
            <stop offset="0.7911" stop-color="#42FFFA"/>
        </linearGradient>
        <radialGradient id="paint2_radial" cx="0" cy="0" r="1" gradientUnits="userSpaceOnUse"
                        gradientTransform="translate(53.6652 81.2416) scale(91.7766 91.868)">
            <stop offset="0.1267" stop-color="white"/>
            <stop offset="0.9427" stop-color="#07C3F2" stop-opacity="0"/>
        </radialGradient>
    </defs>
</svg>
